# File produced by Open Asset Import Library (http://www.assimp.sf.net)
# (assimp v3.1.187496374)

mtllib poly3.obj.mtl

# 172 vertex positions
v  0.173313 0.246037 0.146478
v  0.143714 0.130106 0.273161
v  0.249375 0.234594 0.146478
v  0.22481 0.257481 0
v  0.18285 0.291812 0
v  0.058877 0.246037 0.256337
v  0.11991 0.30707 0.146478
v  0.285613 0.2756 0
v  0.173313 0.246037 -0.146478
v  0.249375 0.234594 -0.146478
v  0.148519 0.333772 0
v  0.11991 0.30707 -0.146478
v  -0.010195 0.341213 0.235508
v  0.09893 0.373824 0.146478
v  0.148519 0.3805 0
v  0.09893 0.373824 -0.146478
v  0.058877 0.246037 -0.256337
v  -0.010195 0.341213 -0.235508
v  0.016917 0.452022 -0.219717
v  0.114188 0.444393 -0.146478
v  0.114188 0.444393 0.146478
v  0.163777 0.431042 0
v  0.070321 0.549293 -0.219717
v  0.154241 0.493982 -0.146478
v  -0.025042 0.535942 -0.146478
v  -0.099426 0.408155 -0.146478
v  0.158055 0.600789 -0.219717
v  0.087486 0.646563 -0.146478
v  0.21718 0.513055 -0.146478
v  0.202876 0.455837 0
v  0.25914 0.606511 -0.219717
v  0.219088 0.692338 -0.146478
v  0.155194 0.713318 0
v  0.009288 0.61414 0
v  0.304915 0.728576 0
v  0.354504 0.67708 -0.146478
v  0.36404 0.574087 -0.219717
v  0.287749 0.505426 -0.146478
v  0.470847 0.604604 -0.146478
v  0.447006 0.684709 0
v  0.354504 0.67708 0.146478
v  0.219088 0.692338 0.146478
v  0.470847 0.604604 0.146478
v  0.547138 0.564551 0
v  0.541187 0.478724 -0.146478
v  0.443077 0.501611 -0.219717
v  0.541187 0.478724 0.146478
v  0.602219 0.402433 0
v  0.36404 0.574087 0.219717
v  0.443077 0.501611 0.219717
v  0.567431 0.322328 0.146478
v  0.472068 0.398619 0.219717
v  0.619156 0.209799 0
v  0.567431 0.322328 -0.146478
v  0.563616 0.150674 0.146478
v  0.455917 0.274944 0.235508
v  0.386241 0.341401 0.146478
v  0.384791 0.413877 0.146478
v  0.321393 0.204077 0.256337
v  0.340466 0.278461 0.146478
v  0.432015 0.143045 0.256337
v  0.345692 0.364288 0
v  0.338788 0.312792 0
v  0.341153 0.415784 0
v  0.352596 0.471095 0.146478
v  0.386241 0.341401 -0.146478
v  0.384791 0.413877 -0.146478
v  0.340466 0.278461 -0.146478
v  0.472068 0.398619 -0.219717
v  0.455917 0.274944 -0.235508
v  0.352596 0.471095 -0.146478
v  0.304915 0.448208 0
v  0.253419 0.465373 0
v  0.287749 0.505426 0.146478
v  0.21718 0.513055 0.146478
v  0.25914 0.606511 0.219717
v  0.158055 0.600789 0.219717
v  0.154241 0.493982 0.146478
v  0.070321 0.549293 0.219717
v  0.087486 0.646563 0.146478
v  -0.025042 0.535942 0.146478
v  0.016917 0.452022 0.219717
v  -0.099426 0.408155 0.146478
v  -0.108008 0.473956 0
v  -0.183346 0.345215 0
v  -0.16618 0.295626 0.146478
v  -0.091797 0.249852 0.256337
v  -0.267265 0.200263 0.146478
v  -0.272033 0.232686 0
v  -0.16618 0.295626 -0.146478
v  -0.091797 0.249852 -0.256337
v  -0.267265 0.200263 -0.146478
v  -0.402681 0.135416 0
v  -0.197494 0.17141 -0.243685
v  -0.383609 0.101085 -0.146478
v  -0.04793 0.164025 -0.292956
v  -0.240564 0.076291 -0.256337
v  -0.524746 0.016212 0
v  -0.467528 -0.038145 -0.146478
v  -0.383609 0.101085 0.146478
v  -0.467528 -0.038145 0.146478
v  -0.593408 -0.16021 0
v  -0.306364 -0.065801 -0.256337
v  -0.519024 -0.211707 -0.146478
v  -0.519024 -0.211707 0.146478
v  -0.619156 -0.352844 0
v  -0.306364 -0.065801 0.256337
v  -0.240564 0.076291 0.256337
v  -0.517117 -0.383361 0.146478
v  -0.360721 -0.219336 0.256337
v  -0.549541 -0.53022 0
v  -0.517117 -0.383361 -0.146478
v  -0.421754 -0.53022 0.146478
v  -0.362489 -0.356209 0.243685
v  -0.22912 -0.267017 0.292956
v  -0.179531 -0.116343 0.292956
v  -0.246285 -0.431042 0.256337
v  -0.242456 -0.621769 0.146478
v  -0.39123 -0.667543 0
v  -0.09952 -0.483128 0.243685
v  -0.086075 -0.32805 0.292956
v  -0.089126 -0.19579 0.292956
v  0.066522 -0.398619 0.256337
v  0.068414 -0.204078 0.292956
v  -0.017368 -0.623676 0.146478
v  -0.156598 -0.728576 0
v  0.194339 -0.528313 0.146478
v  0.094238 -0.696152 0
v  0.226724 -0.259388 0.256337
v  0.194293 -0.051496 0.292956
v  0.01501 -0.057218 0.292956
v  -0.089889 0.034331 0.292956
v  0.300871 0.082012 0.292956
v  0.333524 -0.112529 0.256337
v  0.358333 -0.383361 0.146478
v  0.407823 0.003293 0.243685
v  0.463218 -0.211707 0.146478
v  0.527836 -0.024795 0.146478
v  0.458457 -0.410062 0
v  0.549045 -0.20217 0
v  0.303053 -0.57218 0
v  0.463218 -0.211707 -0.146478
v  0.358333 -0.383361 -0.146478
v  0.60508 0.007629 0
v  0.527836 -0.024795 -0.146478
v  0.407823 0.003293 -0.243685
v  0.333524 -0.112529 -0.256337
v  0.226724 -0.259388 -0.256337
v  0.194339 -0.528313 -0.146478
v  0.194293 -0.051496 -0.292956
v  0.300871 0.082012 -0.292956
v  0.432015 0.143045 -0.256337
v  0.563616 0.150674 -0.146478
v  0.321393 0.204077 -0.256337
v  0.143714 0.130106 -0.273161
v  -0.089889 0.034331 -0.292956
v  0.01501 -0.057218 -0.292956
v  -0.179531 -0.116343 -0.292956
v  -0.089126 -0.19579 -0.292956
v  0.068414 -0.204078 -0.292956
v  -0.360721 -0.219336 -0.256337
v  -0.22912 -0.267017 -0.292956
v  -0.362489 -0.356209 -0.243685
v  -0.086075 -0.32805 -0.292956
v  -0.246285 -0.431042 -0.256337
v  -0.09952 -0.483128 -0.243685
v  0.066522 -0.398619 -0.256337
v  -0.421754 -0.53022 -0.146478
v  -0.242456 -0.621769 -0.146478
v  -0.017368 -0.623676 -0.146478
v  -0.04793 0.164025 0.292956
v  -0.197494 0.17141 0.243685

# 0 UV coordinates

# 172 vertex normals
vn 0.500424 0.710293 0.495035
vn 0.0523536 0.299745 0.952582
vn -0.223651 0.897293 0.380586
vn 0.152832 0.988252 2.19608e-09
vn 0.727015 0.686621 8.41521e-09
vn 0.345702 0.430962 0.833524
vn 0.712102 0.495885 0.496999
vn -0.435387 0.900243 0
vn 0.500424 0.710293 -0.495035
vn -0.223651 0.897293 -0.380586
vn 0.942133 0.33524 0
vn 0.712102 0.495885 -0.496999
vn -0.0386239 0.385436 0.921926
vn 0.809827 0.0153342 0.586469
vn 0.98387 -0.178884 0
vn 0.809827 0.0153341 -0.586469
vn 0.345702 0.430962 -0.833524
vn -0.0386239 0.385436 -0.921926
vn -0.0603049 0.123348 -0.990529
vn 0.740476 -0.331068 -0.584884
vn 0.740476 -0.331068 0.584884
vn 0.797801 -0.60292 1.52265e-08
vn -0.0873837 0.103767 -0.990756
vn 0.433596 -0.670586 -0.60192
vn -0.722977 0.561473 -0.402557
vn -0.750686 0.428287 -0.503032
vn -0.0382515 0.0983623 -0.994415
vn -0.502603 0.777234 -0.378547
vn 0.0792247 -0.807569 -0.584427
vn 0.330354 -0.943857 -4.91636e-09
vn 0.00990455 0.0841895 -0.996401
vn -0.0941861 0.885619 -0.454762
vn -0.351124 0.936329 0
vn -0.681591 0.731733 -6.1912e-09
vn 0.102141 0.99477 -7.4022e-09
vn 0.274126 0.818287 -0.505233
vn 0.0482945 0.0651979 -0.996703
vn -0.246342 -0.785369 -0.567901
vn 0.637603 0.589488 -0.49595
vn 0.550595 0.834773 -3.70056e-09
vn 0.274126 0.818287 0.505233
vn -0.0941861 0.885619 0.454762
vn 0.637603 0.589488 0.49595
vn 0.875248 0.483675 -6.81715e-09
vn 0.834102 0.280796 -0.474792
vn 0.0925841 0.0514349 -0.994376
vn 0.834102 0.280796 0.474792
vn 0.982019 0.188781 0
vn 0.0482945 0.0651979 0.996703
vn 0.0925841 0.0514349 0.994376
vn 0.849893 0.0575636 0.523801
vn 0.106662 0.0773746 0.99128
vn 0.999999 -0.0016841 0
vn 0.849893 0.0575636 -0.523801
vn 0.815368 -0.0757486 0.573966
vn 0.201701 0.243936 0.948584
vn -0.822729 0.238904 0.515793
vn -0.820643 -0.191697 0.538328
vn -0.16317 0.594575 0.787309
vn -0.515453 0.768722 0.378649
vn 0.471508 -0.0324963 0.881263
vn -0.999986 0.00521451 0
vn -0.819957 0.572425 1.07446e-08
vn -0.888296 -0.459272 -5.00209e-09
vn -0.563275 -0.605206 0.562536
vn -0.822729 0.238904 -0.515793
vn -0.820643 -0.191697 -0.538328
vn -0.515453 0.768722 -0.378649
vn 0.106662 0.0773746 -0.99128
vn 0.201701 0.243936 -0.948584
vn -0.563275 -0.605206 -0.562536
vn -0.481921 -0.876215 4.56402e-09
vn -0.0880537 -0.996116 -4.58656e-09
vn -0.246342 -0.785369 0.567901
vn 0.0792247 -0.807569 0.584427
vn 0.00990454 0.0841895 0.996401
vn -0.0382515 0.0983622 0.994415
vn 0.433596 -0.670586 0.60192
vn -0.0873837 0.103767 0.990756
vn -0.502603 0.777234 0.378547
vn -0.722977 0.561473 0.402557
vn -0.060305 0.123348 0.990529
vn -0.750686 0.428287 0.503032
vn -0.829587 0.558377 0
vn -0.837567 0.546335 0
vn -0.676077 0.575564 0.46005
vn -0.355548 0.48842 0.796888
vn -0.601282 0.702616 0.380514
vn -0.689655 0.724138 -3.59227e-09
vn -0.676077 0.575564 -0.46005
vn -0.355549 0.48842 -0.796888
vn -0.601282 0.702616 -0.380514
vn -0.649981 0.759951 -3.2731e-09
vn -0.462056 0.439844 -0.770092
vn -0.646037 0.548744 -0.530582
vn -0.071162 0.169951 -0.98288
vn -0.405544 0.225798 -0.885748
vn -0.845489 0.533993 -6.18102e-09
vn -0.686091 0.293306 -0.665771
vn -0.646037 0.548744 0.530582
vn -0.686091 0.293306 0.665771
vn -0.965698 0.259669 0
vn -0.409566 0.160117 -0.898119
vn -0.711623 0.119627 -0.692302
vn -0.711623 0.119627 0.692302
vn -0.996448 -0.0842061 1.16964e-08
vn -0.409566 0.160117 0.898119
vn -0.405544 0.225798 0.885748
vn -0.672285 -0.202192 0.712146
vn -0.434518 0.0410586 0.899727
vn -0.819066 -0.573699 2.25658e-08
vn -0.672285 -0.202192 -0.712146
vn -0.451997 -0.523674 0.722124
vn -0.385478 -0.222721 0.895434
vn -0.14768 -0.0735874 0.986294
vn -0.126499 0.0538351 0.990505
vn -0.179697 -0.371189 0.911004
vn -0.162862 -0.68084 0.714096
vn -0.451927 -0.892055 -9.91152e-09
vn 0.0293419 -0.455969 0.889512
vn 0.0270207 -0.182164 0.982897
vn 0 0 1
vn 0.206438 -0.363545 0.908415
vn 0.0931279 -0.0986793 0.990752
vn 0.14631 -0.67833 0.720043
vn -0.0429071 -0.999079 -1.78797e-08
vn 0.370817 -0.563668 0.738087
vn 0.351123 -0.936329 8.86752e-09
vn 0.290529 -0.282824 0.914113
vn 0.0773163 -0.0399307 0.996207
vn 0.0107168 0.0354844 0.999313
vn -0.0732138 0.0559442 0.995746
vn 0.134167 0.0291422 0.99053
vn 0.375251 -0.227054 0.898684
vn 0.523015 -0.446885 0.725775
vn 0.496 -0.184177 0.848565
vn 0.676781 -0.315323 0.665236
vn 0.765742 -0.210648 0.607674
vn 0.839295 -0.543676 0
vn 0.944038 -0.329836 0
vn 0.632242 -0.774771 0
vn 0.676781 -0.315323 -0.665236
vn 0.523015 -0.446885 -0.725775
vn 0.984139 -0.1774 0
vn 0.765742 -0.210648 -0.607674
vn 0.496 -0.184177 -0.848565
vn 0.375251 -0.227054 -0.898684
vn 0.290529 -0.282824 -0.914113
vn 0.370817 -0.563668 -0.738087
vn 0.0773164 -0.0399307 -0.996207
vn 0.134167 0.0291422 -0.99053
vn 0.471508 -0.0324963 -0.881263
vn 0.815368 -0.0757486 -0.573966
vn -0.16317 0.594575 -0.787309
vn 0.0523536 0.299745 -0.952582
vn -0.0732138 0.0559442 -0.995746
vn 0.0107168 0.0354844 -0.999313
vn -0.126499 0.0538351 -0.990505
vn 0 0 -1
vn 0.0931279 -0.0986793 -0.990752
vn -0.434518 0.0410587 -0.899727
vn -0.14768 -0.0735874 -0.986294
vn -0.385478 -0.222721 -0.895434
vn 0.0270207 -0.182164 -0.982897
vn -0.179697 -0.371189 -0.911004
vn 0.0293419 -0.455969 -0.889512
vn 0.206438 -0.363545 -0.908415
vn -0.451997 -0.523674 -0.722124
vn -0.162862 -0.68084 -0.714096
vn 0.14631 -0.67833 -0.720043
vn -0.071162 0.169951 0.98288
vn -0.462056 0.439844 0.770092

# Mesh '<OFFRoot>' with 344 faces
g <OFFRoot>
usemtl $Material_0
f  1//1 2//2 3//3
f  1//1 3//3 4//4
f  4//4 5//5 1//1
f  6//6 2//2 1//1
f  6//6 1//1 7//7
f  1//1 5//5 7//7
f  3//3 8//8 4//4
f  9//9 5//5 4//4
f  9//9 4//4 10//10
f  4//4 8//8 10//10
f  7//7 5//5 11//11
f  12//12 5//5 9//9
f  11//11 5//5 12//12
f  7//7 13//13 6//6
f  7//7 11//11 14//14
f  14//14 13//13 7//7
f  11//11 15//15 14//14
f  16//16 15//15 11//11
f  16//16 11//11 12//12
f  12//12 9//9 17//17
f  17//17 18//18 12//12
f  12//12 18//18 16//16
f  19//19 20//20 16//16
f  20//20 15//15 16//16
f  16//16 18//18 19//19
f  14//14 15//15 21//21
f  21//21 15//15 22//22
f  22//22 15//15 20//20
f  19//19 23//23 20//20
f  24//24 22//22 20//20
f  20//20 23//23 24//24
f  25//25 23//23 19//19
f  25//25 19//19 26//26
f  19//19 18//18 26//26
f  24//24 23//23 27//27
f  27//27 23//23 28//28
f  28//28 23//23 25//25
f  27//27 29//29 24//24
f  29//29 30//30 24//24
f  24//24 30//30 22//22
f  27//27 31//31 29//29
f  32//32 31//31 27//27
f  32//32 27//27 28//28
f  28//28 33//33 32//32
f  28//28 25//25 34//34
f  34//34 33//33 28//28
f  35//35 36//36 32//32
f  36//36 31//31 32//32
f  32//32 33//33 35//35
f  37//37 31//31 36//36
f  38//38 31//31 37//37
f  29//29 31//31 38//38
f  39//39 37//37 36//36
f  36//36 40//40 39//39
f  35//35 40//40 36//36
f  41//41 40//40 35//35
f  41//41 35//35 42//42
f  35//35 33//33 42//42
f  43//43 40//40 41//41
f  44//44 40//40 43//43
f  39//39 40//40 44//44
f  44//44 45//45 39//39
f  45//45 46//46 39//39
f  39//39 46//46 37//37
f  44//44 43//43 47//47
f  47//47 48//48 44//44
f  44//44 48//48 45//45
f  43//43 41//41 49//49
f  49//49 50//50 43//43
f  43//43 50//50 47//47
f  51//51 48//48 47//47
f  51//51 47//47 52//52
f  47//47 50//50 52//52
f  53//53 48//48 51//51
f  54//54 48//48 53//53
f  45//45 48//48 54//54
f  53//53 51//51 55//55
f  51//51 56//56 55//55
f  52//52 56//56 51//51
f  57//57 56//56 52//52
f  57//57 52//52 58//58
f  52//52 50//50 58//58
f  59//59 56//56 60//60
f  61//61 56//56 59//59
f  60//60 56//56 57//57
f  55//55 56//56 61//61
f  58//58 62//62 57//57
f  63//63 60//60 57//57
f  57//57 62//62 63//63
f  64//64 62//62 58//58
f  64//64 58//58 65//65
f  58//58 50//50 65//65
f  66//66 62//62 67//67
f  63//63 62//62 66//66
f  67//67 62//62 64//64
f  63//63 8//8 60//60
f  66//66 68//68 63//63
f  68//68 8//8 63//63
f  69//69 70//70 66//66
f  69//69 66//66 67//67
f  66//66 70//70 68//68
f  67//67 46//46 69//69
f  67//67 64//64 71//71
f  71//71 46//46 67//67
f  45//45 54//54 69//69
f  54//54 70//70 69//69
f  69//69 46//46 45//45
f  37//37 46//46 71//71
f  64//64 72//72 71//71
f  37//37 71//71 38//38
f  71//71 72//72 38//38
f  65//65 72//72 64//64
f  73//73 72//72 74//74
f  74//74 72//72 65//65
f  38//38 72//72 73//73
f  29//29 38//38 73//73
f  73//73 74//74 75//75
f  75//75 30//30 73//73
f  73//73 30//30 29//29
f  74//74 76//76 75//75
f  65//65 49//49 74//74
f  49//49 76//76 74//74
f  65//65 50//50 49//49
f  41//41 76//76 49//49
f  75//75 76//76 77//77
f  77//77 76//76 42//42
f  42//42 76//76 41//41
f  78//78 30//30 75//75
f  78//78 75//75 77//77
f  22//22 30//30 78//78
f  22//22 78//78 21//21
f  78//78 79//79 21//21
f  77//77 79//79 78//78
f  77//77 42//42 80//80
f  80//80 79//79 77//77
f  42//42 33//33 80//80
f  81//81 79//79 80//80
f  81//81 80//80 34//34
f  80//80 33//33 34//34
f  82//82 79//79 81//81
f  21//21 79//79 82//82
f  14//14 21//21 82//82
f  83//83 13//13 82//82
f  83//83 82//82 81//81
f  82//82 13//13 14//14
f  81//81 84//84 83//83
f  34//34 84//84 81//81
f  25//25 84//84 34//34
f  83//83 84//84 85//85
f  26//26 84//84 25//25
f  85//85 84//84 26//26
f  86//86 13//13 83//83
f  86//86 83//83 85//85
f  6//6 13//13 87//87
f  87//87 13//13 86//86
f  88//88 87//87 86//86
f  86//86 89//89 88//88
f  85//85 89//89 86//86
f  85//85 26//26 90//90
f  90//90 89//89 85//85
f  26//26 18//18 90//90
f  90//90 18//18 91//91
f  90//90 91//91 92//92
f  92//92 89//89 90//90
f  88//88 89//89 93//93
f  93//93 89//89 92//92
f  91//91 94//94 92//92
f  93//93 92//92 95//95
f  92//92 94//94 95//95
f  91//91 18//18 17//17
f  91//91 17//17 96//96
f  96//96 94//94 91//91
f  95//95 94//94 97//97
f  97//97 94//94 96//96
f  95//95 98//98 93//93
f  95//95 97//97 99//99
f  99//99 98//98 95//95
f  100//100 88//88 93//93
f  93//93 98//98 100//100
f  101//101 98//98 102//102
f  100//100 98//98 101//101
f  102//102 98//98 99//99
f  97//97 103//103 99//99
f  99//99 103//103 104//104
f  99//99 104//104 102//102
f  105//105 101//101 102//102
f  102//102 106//106 105//105
f  104//104 106//106 102//102
f  105//105 107//107 101//101
f  101//101 107//107 108//108
f  101//101 108//108 100//100
f  109//109 110//110 105//105
f  110//110 107//107 105//105
f  105//105 106//106 109//109
f  109//109 106//106 111//111
f  112//112 106//106 104//104
f  111//111 106//106 112//112
f  113//113 114//114 109//109
f  113//113 109//109 111//111
f  109//109 114//114 110//110
f  115//115 116//116 110//110
f  116//116 107//107 110//110
f  110//110 114//114 115//115
f  117//117 114//114 113//113
f  115//115 114//114 117//117
f  118//118 117//117 113//113
f  113//113 119//119 118//118
f  111//111 119//119 113//113
f  118//118 120//120 117//117
f  117//117 120//120 121//121
f  117//117 121//121 115//115
f  121//121 122//122 115//115
f  115//115 122//122 116//116
f  123//123 124//124 121//121
f  124//124 122//122 121//121
f  121//121 120//120 123//123
f  123//123 120//120 125//125
f  125//125 120//120 118//118
f  125//125 118//118 126//126
f  118//118 119//119 126//126
f  127//127 123//123 125//125
f  125//125 128//128 127//127
f  126//126 128//128 125//125
f  127//127 129//129 123//123
f  123//123 129//129 124//124
f  130//130 131//131 124//124
f  131//131 122//122 124//124
f  124//124 129//129 130//130
f  116//116 122//122 131//131
f  130//130 2//2 131//131
f  131//131 2//2 132//132
f  131//131 132//132 116//116
f  133//133 2//2 130//130
f  133//133 130//130 134//134
f  130//130 129//129 134//134
f  134//134 129//129 135//135
f  135//135 129//129 127//127
f  134//134 136//136 133//133
f  134//134 135//135 137//137
f  137//137 136//136 134//134
f  59//59 2//2 133//133
f  59//59 133//133 61//61
f  133//133 136//136 61//61
f  61//61 136//136 138//138
f  138//138 136//136 137//137
f  135//135 139//139 137//137
f  140//140 138//138 137//137
f  137//137 139//139 140//140
f  135//135 127//127 141//141
f  141//141 139//139 135//135
f  140//140 139//139 142//142
f  142//142 139//139 143//143
f  143//143 139//139 141//141
f  140//140 144//144 138//138
f  145//145 144//144 140//140
f  145//145 140//140 142//142
f  142//142 146//146 145//145
f  147//147 146//146 142//142
f  147//147 142//142 143//143
f  143//143 148//148 147//147
f  149//149 148//148 143//143
f  149//149 143//143 141//141
f  150//150 151//151 147//147
f  151//151 146//146 147//147
f  147//147 148//148 150//150
f  152//152 146//146 151//151
f  145//145 146//146 152//152
f  153//153 144//144 145//145
f  153//153 145//145 152//152
f  154//154 70//70 152//152
f  154//154 152//152 151//151
f  152//152 70//70 153//153
f  151//151 155//155 154//154
f  150//150 155//155 151//151
f  10//10 68//68 154//154
f  68//68 70//70 154//154
f  154//154 155//155 10//10
f  153//153 70//70 54//54
f  54//54 53//53 153//153
f  53//53 144//144 153//153
f  55//55 144//144 53//53
f  138//138 144//144 55//55
f  138//138 55//55 61//61
f  10//10 155//155 9//9
f  10//10 8//8 68//68
f  9//9 155//155 17//17
f  17//17 155//155 96//96
f  97//97 96//96 156//156
f  96//96 155//155 156//156
f  156//156 103//103 97//97
f  156//156 155//155 157//157
f  156//156 157//157 158//158
f  158//158 103//103 156//156
f  157//157 155//155 150//150
f  157//157 159//159 158//158
f  157//157 150//150 160//160
f  160//160 159//159 157//157
f  161//161 103//103 158//158
f  161//161 158//158 162//162
f  158//158 159//159 162//162
f  104//104 103//103 161//161
f  104//104 161//161 112//112
f  161//161 163//163 112//112
f  162//162 163//163 161//161
f  162//162 159//159 164//164
f  162//162 164//164 165//165
f  165//165 163//163 162//162
f  164//164 159//159 160//160
f  164//164 166//166 165//165
f  164//164 160//160 167//167
f  167//167 166//166 164//164
f  168//168 163//163 165//165
f  168//168 165//165 169//169
f  165//165 166//166 169//169
f  112//112 163//163 168//168
f  112//112 168//168 111//111
f  168//168 119//119 111//111
f  169//169 119//119 168//168
f  169//169 166//166 170//170
f  169//169 170//170 126//126
f  126//126 119//119 169//169
f  170//170 166//166 167//167
f  170//170 128//128 126//126
f  170//170 167//167 149//149
f  149//149 128//128 170//170
f  127//127 128//128 141//141
f  141//141 128//128 149//149
f  167//167 148//148 149//149
f  150//150 148//148 160//160
f  160//160 148//148 167//167
f  60//60 8//8 3//3
f  3//3 59//59 60//60
f  3//3 2//2 59//59
f  132//132 2//2 171//171
f  171//171 2//2 6//6
f  132//132 107//107 116//116
f  132//132 171//171 108//108
f  108//108 107//107 132//132
f  171//171 172//172 108//108
f  171//171 6//6 87//87
f  87//87 172//172 171//171
f  108//108 172//172 100//100
f  100//100 172//172 88//88
f  88//88 172//172 87//87

