# File produced by Open Asset Import Library (http://www.assimp.sf.net)
# (assimp v3.1.187496374)

mtllib star.obj.mtl

# 50 vertex positions
v  -0.375 -2.625 -0.375
v  -0.375 -2.625 0.375
v  -1.5 -1.5 0
v  0 -4 0
v  -1 -1 -1
v  0.375 -2.625 -0.375
v  0 -1.5 -1.5
v  0.375 -2.625 0.375
v  1 -1 -1
v  1.5 -1.5 0
v  -0.375 -0.375 -2.625
v  0.375 -0.375 -2.625
v  2.625 -0.375 -0.375
v  1.5 0 -1.5
v  1 -1 1
v  2.625 -0.375 0.375
v  4 0 0
v  2.625 0.375 -0.375
v  1 1 -1
v  0.375 0.375 -2.625
v  2.625 0.375 0.375
v  1.5 1.5 0
v  1.5 0 1.5
v  1 1 1
v  0.375 2.625 -0.375
v  0.375 2.625 0.375
v  0 1.5 -1.5
v  -0.375 2.625 -0.375
v  0 4 0
v  -0.375 2.625 0.375
v  0 1.5 1.5
v  0.375 0.375 2.625
v  -1 1 1
v  -0.375 0.375 2.625
v  -1.5 1.5 0
v  -1 1 -1
v  -2.625 0.375 -0.375
v  -2.625 0.375 0.375
v  -1.5 0 1.5
v  0 0 4
v  -0.375 -0.375 2.625
v  -2.625 -0.375 0.375
v  -1 -1 1
v  -4 0 0
v  -2.625 -0.375 -0.375
v  0 -1.5 1.5
v  0.375 -0.375 2.625
v  -1.5 0 -1.5
v  -0.375 0.375 -2.625
v  0 0 -4

# 0 UV coordinates

# 50 vertex normals
vn -0.585714 -0.560248 -0.585714
vn -0.585714 -0.560248 0.585714
vn -0.707107 -0.707107 0
vn 0 -1 0
vn -0.57735 -0.57735 -0.57735
vn 0.585714 -0.560248 -0.585714
vn 0 -0.707107 -0.707107
vn 0.585714 -0.560248 0.585714
vn 0.57735 -0.57735 -0.57735
vn 0.707107 -0.707107 0
vn -0.585714 -0.585714 -0.560248
vn 0.585714 -0.585714 -0.560248
vn 0.560248 -0.585714 -0.585714
vn 0.707107 0 -0.707107
vn 0.57735 -0.57735 0.57735
vn 0.560248 -0.585714 0.585714
vn 1 0 0
vn 0.560248 0.585714 -0.585714
vn 0.57735 0.57735 -0.57735
vn 0.585714 0.585714 -0.560248
vn 0.560248 0.585714 0.585714
vn 0.707107 0.707107 0
vn 0.707107 0 0.707107
vn 0.57735 0.57735 0.57735
vn 0.585714 0.560248 -0.585714
vn 0.585714 0.560248 0.585714
vn 0 0.707107 -0.707107
vn -0.585714 0.560248 -0.585714
vn 0 1 0
vn -0.585714 0.560248 0.585714
vn 0 0.707107 0.707107
vn 0.585714 0.585714 0.560248
vn -0.57735 0.57735 0.57735
vn -0.585714 0.585714 0.560248
vn -0.707107 0.707107 0
vn -0.57735 0.57735 -0.57735
vn -0.560248 0.585714 -0.585714
vn -0.560248 0.585714 0.585714
vn -0.707107 0 0.707107
vn 0 0 1
vn -0.585714 -0.585714 0.560248
vn -0.560248 -0.585714 0.585714
vn -0.57735 -0.57735 0.57735
vn -1 0 0
vn -0.560248 -0.585714 -0.585714
vn 0 -0.707107 0.707107
vn 0.585714 -0.585714 0.560248
vn -0.707107 0 -0.707107
vn -0.585714 0.585714 -0.560248
vn 0 0 -1

# Mesh '<OFFRoot>' with 96 faces
g <OFFRoot>
usemtl $Material_0
f  1//1 2//2 3//3
f  4//4 2//2 1//1
f  5//5 1//1 3//3
f  6//6 1//1 7//7
f  4//4 1//1 6//6
f  5//5 7//7 1//1
f  4//4 6//6 8//8
f  4//4 8//8 2//2
f  9//9 6//6 7//7
f  8//8 6//6 10//10
f  9//9 10//10 6//6
f  11//11 12//12 7//7
f  5//5 11//11 7//7
f  9//9 7//7 12//12
f  9//9 13//13 10//10
f  9//9 14//14 13//13
f  9//9 12//12 14//14
f  15//15 8//8 10//10
f  13//13 16//16 10//10
f  15//15 10//10 16//16
f  17//17 16//16 13//13
f  18//18 13//13 14//14
f  17//17 13//13 18//18
f  19//19 18//18 14//14
f  12//12 20//20 14//14
f  19//19 14//14 20//20
f  21//21 18//18 22//22
f  17//17 18//18 21//21
f  19//19 22//22 18//18
f  17//17 21//21 16//16
f  16//16 21//21 23//23
f  15//15 16//16 23//23
f  24//24 21//21 22//22
f  24//24 23//23 21//21
f  25//25 26//26 22//22
f  19//19 25//25 22//22
f  24//24 22//22 26//26
f  19//19 27//27 25//25
f  19//19 20//20 27//27
f  28//28 25//25 27//27
f  29//29 25//25 28//28
f  29//29 26//26 25//25
f  26//26 30//30 31//31
f  29//29 30//30 26//26
f  24//24 26//26 31//31
f  24//24 31//31 32//32
f  24//24 32//32 23//23
f  33//33 31//31 30//30
f  34//34 32//32 31//31
f  33//33 34//34 31//31
f  30//30 28//28 35//35
f  29//29 28//28 30//30
f  33//33 30//30 35//35
f  36//36 35//35 28//28
f  36//36 28//28 27//27
f  37//37 38//38 35//35
f  36//36 37//37 35//35
f  33//33 35//35 38//38
f  33//33 38//38 39//39
f  33//33 39//39 34//34
f  40//40 32//32 34//34
f  41//41 34//34 39//39
f  40//40 34//34 41//41
f  38//38 42//42 39//39
f  43//43 39//39 42//42
f  43//43 41//41 39//39
f  44//44 38//38 37//37
f  44//44 42//42 38//38
f  42//42 45//45 3//3
f  44//44 45//45 42//42
f  43//43 42//42 3//3
f  43//43 3//3 2//2
f  43//43 2//2 46//46
f  43//43 46//46 41//41
f  47//47 41//41 46//46
f  40//40 41//41 47//47
f  40//40 47//47 32//32
f  15//15 47//47 46//46
f  32//32 47//47 23//23
f  15//15 23//23 47//47
f  2//2 8//8 46//46
f  15//15 46//46 8//8
f  5//5 3//3 45//45
f  5//5 45//45 48//48
f  5//5 48//48 11//11
f  45//45 37//37 48//48
f  36//36 48//48 37//37
f  49//49 11//11 48//48
f  36//36 49//49 48//48
f  50//50 12//12 11//11
f  50//50 11//11 49//49
f  20//20 49//49 27//27
f  50//50 49//49 20//20
f  36//36 27//27 49//49
f  50//50 20//20 12//12
f  44//44 37//37 45//45

